<svg width="425" height="467" viewBox="0 0 425 467" fill="none" xmlns="http://www.w3.org/2000/svg">
    <g clip-path="url(#clip0_851_3830)">
        <path d="M323.965 212.295C324.878 215.814 325.389 219.427 325.485 223.061C325.711 233.445 322.309 248.778 304.761 262.924C291.196 273.847 274.634 276.868 256.841 271.63C249.014 269.292 241.62 265.693 234.949 260.976C228.979 256.575 223.912 251.065 220.022 244.75L219.417 243.9C218.857 242.982 218.275 241.996 217.716 240.966C213.24 233.356 202.518 215.294 190.231 196.918C160.776 152.691 149.719 147.364 147.794 146.738C143.83 145.437 139.729 144.596 135.573 144.231C131.097 144.231 128.478 144.231 128.389 144.231V144.096C123.891 144.278 119.462 145.271 115.317 147.029L114.892 147.252H114.624C109.065 149.832 103.974 153.319 99.5604 157.57C90.9881 165.919 87.4965 175.611 89.1974 186.399C91.0104 198.172 95.9122 206.297 103.701 210.571C109.448 213.475 115.883 214.737 122.301 214.22C125.887 213.661 129.322 212.381 132.4 210.458C135.477 208.534 138.133 206.007 140.206 203.029C143.497 197.702 143.519 191.368 140.206 183.668C135.864 173.44 129.664 173.238 125.21 174.894C120.331 176.685 117.556 180.826 118.115 182.639C118.451 183.857 118.98 185.013 119.682 186.063L120.13 185.862H120.353C121.451 185.199 122.672 184.768 123.942 184.595C125.213 184.422 126.505 184.51 127.74 184.854C129.49 185.337 131.065 186.312 132.277 187.664C133.489 189.017 134.286 190.689 134.574 192.482C134.862 194.274 134.628 196.113 133.9 197.776C133.173 199.44 131.982 200.859 130.47 201.865C127.974 203.487 125.148 204.53 122.196 204.917C119.245 205.305 116.245 205.027 113.415 204.103C105.603 201.35 101.843 193.986 99.9856 188.301C99.0002 184.972 98.8026 181.46 99.4088 178.041C100.015 174.623 101.408 171.392 103.477 168.605C107.283 163.372 112.592 159.422 118.697 157.28C125.647 154.619 133.353 154.724 140.229 157.57C145.511 159.809 152.83 164.912 157.732 176.483C164.894 193.382 160.932 205.782 156.366 213.19C152.718 218.762 147.882 223.458 142.205 226.941C136.529 230.422 130.152 232.606 123.532 233.334C117.197 233.739 110.838 233.104 104.708 231.454C101.195 230.497 97.8069 229.13 94.6139 227.382C85.5045 222.411 73.9329 211.713 70.4637 189.51C67.7778 172.298 73.4404 156.451 86.8697 143.649C92.793 138.039 99.5985 133.442 107.014 130.041C116.087 126.115 125.989 124.485 135.842 125.295C145.892 125.295 164.939 124.848 184.747 123.55C237.815 120.08 247.953 113.164 249.454 111.821C252.957 108.679 256.041 105.099 258.631 101.168C260.377 98.0788 261.428 96.2881 261.45 96.2211C263.516 92.2622 264.85 87.9632 265.389 83.5302V82.9707V82.6798C265.928 76.578 265.451 70.4293 263.981 64.483C261.025 52.8891 254.379 45.0106 244.194 41.0714C233.004 36.7739 223.603 36.9531 216.015 41.5637C210.697 45.1311 206.455 50.0845 203.749 55.8884C202.439 59.2645 201.825 62.8706 201.944 66.4902C202.064 70.1094 202.914 73.6674 204.443 76.95C207.42 82.4559 212.881 85.6342 221.185 86.6415C232.22 88.0068 235.488 82.7245 236.292 78.0466C237.188 72.9436 234.995 68.4447 233.137 68.0418C231.911 67.7273 230.642 67.6065 229.376 67.6837C229.367 67.8403 229.367 67.9974 229.376 68.1538V68.3553C229.479 70.8661 228.576 73.3145 226.872 75.1612C225.17 77.0082 222.802 78.1025 220.289 78.2033C217.779 78.3043 215.331 77.4037 213.484 75.6995C211.637 73.9953 210.543 71.6272 210.442 69.1162C210.27 66.1423 210.765 63.1675 211.892 60.41C213.019 57.6526 214.749 55.1823 216.955 53.1802C223.244 47.8083 231.503 48.2336 237.322 49.5094C240.698 50.3207 243.837 51.9056 246.494 54.1393C249.152 56.3727 251.253 59.1937 252.633 62.3793C255.351 68.2883 256.201 74.8865 255.071 81.2922C253.877 88.6333 249.932 95.244 244.036 99.7797C239.449 103.227 231.391 107.032 218.924 105.487C200.683 103.249 191.932 93.6246 187.813 85.9477C184.822 80.0045 183.181 73.474 183.007 66.8227C182.832 60.1717 184.13 53.564 186.806 47.4727C189.63 41.7793 193.364 36.5853 197.863 32.096C200.451 29.5333 203.327 27.28 206.435 25.3815C215.388 20.0097 230.272 15.2871 251.312 23.4118C267.538 29.7011 278.439 42.5486 282.825 60.5439C284.641 68.5111 285.147 76.7208 284.326 84.8508C283.493 92.1608 281.283 99.2469 277.813 105.733C277.813 105.733 277.813 105.733 277.633 106.024C276.895 107.435 276.089 108.867 275.171 110.322C270.695 118.402 260.668 136.196 251.2 155.377C249.41 159.137 247.767 162.666 246.275 165.964L230.607 158.555C230.447 158.481 230.305 158.371 230.193 158.235C230.079 158.099 230 157.939 229.957 157.767C229.913 157.595 229.911 157.416 229.946 157.243C229.981 157.069 230.053 156.906 230.16 156.765L244.687 137.337C244.825 137.161 244.908 136.948 244.93 136.725C244.95 136.502 244.906 136.277 244.801 136.079C244.698 135.88 244.538 135.716 244.343 135.606C244.148 135.495 243.925 135.444 243.701 135.457H240.054H239.74L170.355 137.494C170.137 137.499 169.924 137.564 169.74 137.682C169.557 137.801 169.409 137.967 169.314 138.164C169.22 138.361 169.181 138.58 169.203 138.798C169.224 139.015 169.306 139.222 169.438 139.396L210.464 193.024L213.24 197.299L213.374 196.807L214.09 197.724C214.221 197.907 214.402 198.047 214.611 198.129C214.82 198.211 215.048 198.231 215.269 198.186C215.489 198.141 215.691 198.033 215.851 197.876C216.011 197.719 216.123 197.518 216.172 197.299L222.171 173.798C222.212 173.627 222.291 173.469 222.403 173.334C222.515 173.199 222.655 173.09 222.815 173.017C222.975 172.944 223.148 172.908 223.323 172.911C223.498 172.915 223.669 172.957 223.827 173.037L239.561 180.535C228.011 207.662 228.638 215.719 228.975 217.286C229.957 222.001 231.567 226.564 233.764 230.849C235.129 233.088 236.003 234.677 236.27 235.17C238.706 239.073 241.839 242.495 245.515 245.264L245.894 245.51L246.142 245.711C251.154 249.221 256.712 251.876 262.592 253.567C274.119 256.814 284.258 255 292.762 248.152C302.029 240.675 306.619 232.484 306.417 223.53C306.047 217.114 303.926 210.921 300.283 205.625C298.018 202.802 295.203 200.467 292.011 198.759C288.817 197.051 285.314 196.006 281.706 195.688C275.462 195.508 269.957 198.664 264.92 205.334C258.206 214.287 261.183 219.681 264.92 222.724C268.903 226.061 273.872 226.396 275.171 224.963C276.08 224.071 276.836 223.035 277.41 221.896C277.294 221.786 277.167 221.69 277.029 221.607L276.827 221.471C275.175 220.551 273.837 219.155 272.984 217.467C272.132 215.778 271.806 213.873 272.047 211.996C272.288 210.12 273.085 208.359 274.336 206.94C275.587 205.521 277.234 204.51 279.066 204.036C281.261 203.45 283.594 203.689 285.623 204.707C288.287 206.043 290.615 207.959 292.44 210.314C294.265 212.669 295.538 215.404 296.165 218.316C297.687 226.44 293.189 233.38 289.161 237.787C286.76 240.287 283.811 242.193 280.549 243.358C277.287 244.524 273.799 244.916 270.358 244.502C263.886 243.902 257.755 241.332 252.788 237.139C247.007 232.449 243.241 225.721 242.268 218.338C241.576 212.653 242.268 203.767 249.901 193.718C260.957 179.058 273.672 176.282 282.378 176.528C289.021 176.908 295.499 178.752 301.346 181.929C307.193 185.106 312.264 189.537 316.196 194.904C319.713 200.196 322.341 206.024 323.987 212.161L323.965 212.295ZM368.461 156.989C368.465 125.942 359.262 95.5908 342.016 69.7745C324.769 43.9581 300.255 23.8359 271.571 11.9527C242.891 0.0695224 211.327 -3.04083 180.876 3.01505C150.426 9.0709 122.455 24.021 100.502 45.9745C78.5483 67.9279 63.5984 95.8986 57.5423 126.349C51.4865 156.8 54.5969 188.362 66.48 217.045C78.3632 245.727 98.4854 270.243 124.302 287.488C150.118 304.734 180.469 313.937 211.516 313.933C232.125 313.933 252.534 309.873 271.576 301.987C290.618 294.098 307.918 282.537 322.493 267.965C337.065 253.392 348.626 236.09 356.512 217.048C364.401 198.007 368.461 177.599 368.461 156.989Z" fill="currentColor"/>
        <path d="M14.0598 375.281C14.055 371.686 15.1116 368.17 17.0972 365.17C19.0828 362.174 21.909 359.829 25.2216 358.43C28.5341 357.032 32.1856 356.642 35.7186 357.31C39.2516 357.98 42.5085 359.676 45.0815 362.187L54.9744 352.296C50.4271 347.811 44.6528 344.775 38.381 343.572C32.1094 342.369 25.6218 343.053 19.7384 345.537C13.8549 348.019 8.83967 352.19 5.32652 357.525C1.81337 362.857 -0.0399999 369.112 0.000654772 375.498C0.0413096 381.883 1.97416 388.114 5.55492 393.402C9.13568 398.688 14.2036 402.796 20.1182 405.206C26.0328 407.613 32.5285 408.214 38.7845 406.932C45.0404 405.648 50.7757 402.54 55.2653 397.998L45.3725 388.105C42.8321 390.71 39.5725 392.495 36.0113 393.234C32.4498 393.972 28.7491 393.63 25.383 392.254C22.017 390.876 19.1388 388.524 17.1174 385.5C15.0961 382.477 14.0236 378.917 14.0374 375.281H14.0598ZM91.5244 363.015C91.5244 367.626 87.9432 370.671 81.7211 370.671H77.4462V356.033C79.2837 355.698 81.1531 355.571 83.0194 355.652C88.503 355.652 91.547 358.338 91.547 362.949L91.5244 363.015ZM97.3885 376.915V376.602C100.422 375.436 103.041 373.399 104.917 370.746C106.794 368.093 107.842 364.943 107.931 361.696C108.081 359.133 107.608 356.572 106.551 354.234C105.495 351.895 103.887 349.846 101.865 348.267C97.2095 344.775 90.4501 343.476 81.0048 343.476C74.3413 343.421 67.6828 343.863 61.0848 344.797V405.587H77.4462V382.51H80.1096C85.2127 382.51 87.4733 384.054 89.0625 391.463C90.0415 396.322 91.4883 401.074 93.3821 405.653H110.258C109.072 403.28 107.035 394.329 105.178 388.061C103.588 382.712 101.373 378.773 97.2991 377.005L97.3885 376.915ZM148.241 379.244H136.871L139.512 368.231C140.407 364.739 141.325 359.659 142.242 356.011H142.421C143.384 359.659 144.548 364.695 145.488 368.163L148.241 379.244ZM154.508 405.631H172.414L154.038 343.991H131.991L114.086 405.631H131.163L134.633 391.352H150.569L154.508 405.631ZM196.743 357.488H219.797V344.058H180.247V405.699H196.765V382.197H218.454V368.768H196.765L196.743 357.488ZM255.653 355.698H272.506V343.991H225.101V355.698H241.799V405.631H255.743L255.653 355.698ZM279.847 405.631H319.241V394.217H293.881V379.557H316.555V368.364H293.881V355.518H317.898V344.102H279.847V405.631ZM359.013 362.456C359.013 367.828 354.873 371.41 347.957 371.41H342.517V354.421C344.585 354.048 346.686 353.899 348.785 353.974C355.164 353.974 359.035 356.883 359.035 362.524L359.013 362.456ZM362.012 376.825V376.534C365.152 375.414 367.875 373.364 369.818 370.658C371.763 367.95 372.835 364.715 372.891 361.383C373.016 358.933 372.565 356.489 371.575 354.245C370.582 352.002 369.08 350.024 367.182 348.466C362.707 344.976 356.373 343.566 347.24 343.566C341.038 343.522 334.841 343.971 328.709 344.908V405.699H342.517V381.437H346.66C352.41 381.437 354.984 383.675 356.709 391.262C357.657 396.176 359.072 400.989 360.939 405.631H375.218C373.27 399.922 371.612 394.116 370.249 388.241C368.683 382.556 366.289 378.481 362.012 376.759V376.825ZM417.297 357.308L420.364 346.118C415.437 343.927 410.086 342.865 404.696 343.007C390.214 343.007 381.374 350.996 381.374 361.516C381.374 370.47 388.089 376.109 398.385 379.758C405.77 382.354 408.703 384.591 408.703 388.375C408.703 392.158 405.323 395.089 398.922 395.089C393.532 395.03 388.235 393.705 383.455 391.218L380.568 402.765C386.01 405.335 391.962 406.645 397.982 406.595C414.947 406.595 422.825 397.641 422.825 387.457C422.825 378.751 417.79 373.088 406.867 369.015C398.876 365.992 395.452 364.246 395.452 360.353C395.452 357.196 398.361 354.377 404.405 354.377C408.861 354.375 413.26 355.376 417.275 357.308" fill="currentColor"/>
        <path d="M266.577 420.112C280.006 420.112 286.274 431.64 286.274 441.689C286.274 453.508 279.156 463.804 266.419 463.804C253.685 463.804 246.701 453.083 246.701 442.339C246.701 431.147 253.014 420.112 266.577 420.112ZM266.846 417.293C253.415 417.293 242.762 426.783 242.762 442.451C242.762 457.379 252.968 466.624 266.174 466.624C278.619 466.624 290.213 458.321 290.213 441.489C290.213 426.693 280.387 417.293 266.846 417.293ZM235.085 442.182H218.858V444.979H231.302V461.789C227.72 463.081 223.915 463.644 220.112 463.445C205.988 463.467 197.035 455.433 197.035 441.936C197.035 429 206.1 420.472 220.918 420.472C224.837 420.362 228.739 421.063 232.378 422.531L233.609 419.733C229.611 418.22 225.37 417.459 221.095 417.495C202.877 417.495 193.096 428.687 193.096 442.116C192.984 445.453 193.585 448.776 194.859 451.865C196.132 454.951 198.049 457.731 200.482 460.021C205.82 464.393 212.593 466.628 219.485 466.288C224.817 466.324 230.117 465.445 235.153 463.692L235.085 442.182ZM179.779 465.839H183.606V418.077H179.779V465.839ZM154.196 465.839L174.049 418.077H170.043L159.568 443.704C156.974 449.678 154.688 455.782 152.719 461.99H152.517C150.995 456.665 148.802 450.599 146.228 443.682L136.738 418.077H132.754L150.66 465.839H154.196Z" fill="currentColor"/>
    </g>
    <defs>
        <clipPath id="clip0_851_3830">
            <rect width="425" height="466.624" fill="white"/>
        </clipPath>
    </defs>
</svg>
