<?xml version="1.0" encoding="UTF-8"?>
<svg id="Capa_2" data-name="Capa 2" xmlns="http://www.w3.org/2000/svg" viewBox="0 0 1696.29 444.6">
  <defs>
    <style>
      .cls-1 {
        fill: #001514;
      }

      .cls-2 {
        fill: #80fb89;
      }
    </style>
  </defs>
  <g id="Capa_1-2" data-name="Capa 1">
    <g>
      <path class="cls-1" d="m229.89,6.16v158.13c0,2.52-2.88,3.99-4.89,2.47-23.55-17.72-52.9-27.54-82.81-27.54C62.8,139.23,0,201.44,0,280.24s62.8,140.98,142.19,140.98c29.91,0,59.25-9.81,82.81-27.54,2.02-1.52,4.89-.05,4.89,2.47v12.4c0,3.4,2.76,6.16,6.16,6.16h43.94c3.4,0,6.16-2.76,6.16-6.16V6.16c0-3.4-2.76-6.16-6.16-6.16h-43.94c-3.4,0-6.16,2.76-6.16,6.16Zm-85.33,360.58c-49.18,0-85.3-36.73-85.3-86.5s36.12-86.5,85.3-87.12c48.6.62,85.33,37.35,85.33,87.12s-36.73,86.5-85.33,86.5Z"/>
      <path class="cls-1" d="m1690.12,145.73h-200.96c-3.4,0-6.16,2.76-6.16,6.16v38.06c0,3.4,2.76,6.16,6.16,6.16h113.37c2.41,0,3.88,2.63,2.63,4.69l-124.74,204.55c-2.5,4.11.45,9.37,5.26,9.37h202.67c3.4,0,6.16-2.76,6.16-6.16v-39.23c0-3.4-2.76-6.16-6.16-6.16h-113.39c-2.4,0-3.88-2.62-2.64-4.68l123.07-203.41c2.49-4.11-.47-9.35-5.27-9.35Z"/>
      <path class="cls-1" d="m1015.53,139.23c-85.33,0-142.8,65.18-142.8,141.01s61.05,140.98,144.59,140.98c37.55,0,70.88-12.63,95.95-34.44,2.89-2.51,2.83-7.03-.13-9.46l-33.14-27.15c-2.14-1.75-5.19-1.88-7.43-.27-15.37,11.06-34.72,17.41-55.24,17.41-38.03,0-74.4-24.1-83.46-66.83-.4-1.9,1.1-3.67,3.03-3.67h211.63c3.27,0,5.92-2.56,6.16-5.82,6.2-86.58-55.72-151.78-139.16-151.78Zm-76.52,114.33c-2.04,0-3.56-1.96-2.98-3.92,9.95-33.04,37.86-58.27,79.5-58.27s72.13,28.35,78.68,58.39c.42,1.95-1.01,3.8-3.01,3.8h-152.19Z"/>
      <path class="cls-1" d="m1319.79,139.23c-85.33,0-142.8,65.18-142.8,141.01s61.05,140.98,144.59,140.98c37.55,0,70.88-12.63,95.95-34.44,2.89-2.51,2.83-7.03-.13-9.46l-33.14-27.15c-2.14-1.75-5.19-1.88-7.43-.27-15.37,11.06-34.72,17.41-55.24,17.41-38.03,0-74.4-24.1-83.46-66.83-.4-1.9,1.1-3.67,3.03-3.67h211.63c3.27,0,5.92-2.56,6.16-5.82,6.2-86.58-55.72-151.78-139.16-151.78Zm-76.52,114.33c-2.04,0-3.56-1.96-2.98-3.92,9.95-33.04,37.86-58.27,79.5-58.27s72.13,28.35,78.68,58.39c.42,1.95-1.01,3.8-3.01,3.8h-152.19Z"/>
      <path class="cls-1" d="m465.11,139.23c-85.33,0-142.8,65.18-142.8,141.01s61.05,140.98,144.59,140.98c37.55,0,70.88-12.63,95.95-34.44,2.89-2.51,2.83-7.03-.13-9.46l-33.14-27.15c-2.14-1.75-5.19-1.88-7.43-.27-15.37,11.06-34.72,17.41-55.24,17.41-38.03,0-74.4-24.1-83.46-66.83-.4-1.9,1.1-3.67,3.03-3.67h211.63c3.27,0,5.92-2.56,6.16-5.82,6.2-86.58-55.72-151.78-139.16-151.78Zm-76.52,114.33c-2.04,0-3.56-1.96-2.98-3.92,9.95-33.04,37.86-58.27,79.5-58.27s72.13,28.35,78.68,58.39c.42,1.95-1.01,3.8-3.01,3.8h-152.19Z"/>
      <path class="cls-2" d="m830.43,367.65c-1.2-3.22-4.35-5.26-7.78-5.04-26.12,1.65-53.86,2.62-83.05,2.6-28.59-.02-55.78-.98-81.43-2.6-3.43-.22-6.58,1.82-7.78,5.04-8.28,22.14-16.56,44.28-24.85,66.41-1.91,5.1,1.86,10.54,7.31,10.54h215.12c5.45,0,9.22-5.44,7.31-10.54l-24.85-66.41Z"/>
      <path class="cls-1" d="m862.4,107.03l-105.76,220.84c-1.88,3.92-5.84,6.42-10.19,6.42h-12.26c-4.35,0-8.31-2.5-10.19-6.42l-105.59-220.83c-1.81-3.78.46-8.23,4.58-8.99,13.82-2.53,28.81-4.84,44.87-6.65,2.73-.3,5.34,1.16,6.5,3.65l62.81,136.14c1.26,2.74,5.15,2.74,6.41,0l62.87-136.15c1.15-2.49,3.77-3.95,6.5-3.65,16.06,1.81,31.05,4.12,44.88,6.65,4.12.76,6.38,5.22,4.58,8.99Z"/>
    </g>
  </g>
</svg>