<svg width="1568" height="136" viewBox="0 0 1568 136" fill="none" xmlns="http://www.w3.org/2000/svg">
<g id="Logo green (light/dark BG)">
<path id="Shape" fill-rule="evenodd" clip-rule="evenodd" d="M1528.81 49.0094C1513.35 49.0094 1502 60.3516 1502 76.8495V129.436H1488.6V0.546875H1502V54.1649C1508.19 43.8538 1517.47 36.636 1532.94 36.636C1555.63 36.636 1568 51.0716 1568 72.725V129.436H1554.59V75.8184C1554.59 59.3205 1545.31 49.0094 1528.81 49.0094ZM1240.08 19.107H1281.33V5.70246H1184.4V19.107H1225.65V129.436H1240.08V19.107ZM1290.61 89.2229H1363.82V85.0984C1363.82 57.2583 1348.36 36.636 1321.55 36.636C1295.77 36.636 1277.2 57.2583 1277.2 84.0673C1277.2 111.907 1297.83 131.499 1322.58 131.499C1340.11 131.499 1351.45 124.281 1360.73 113.97L1351.45 106.752C1344.23 115.001 1335.98 120.156 1323.61 120.156C1307.11 120.156 1292.67 108.814 1290.61 89.2229ZM1320.51 47.9782C1305.05 47.9782 1292.67 61.3828 1290.61 78.9117H1349.39C1348.36 62.4139 1339.08 47.9782 1320.51 47.9782ZM1465.91 113.97L1457.66 105.721C1450.44 113.97 1441.16 119.125 1428.79 119.125C1410.23 119.125 1395.79 103.659 1395.79 84.0673C1395.79 63.445 1410.23 47.9782 1428.79 47.9782C1441.16 47.9782 1448.38 54.1649 1455.6 62.4139L1464.88 52.1027C1456.63 43.8538 1446.32 36.636 1428.79 36.636C1401.98 36.636 1381.35 58.2894 1381.35 84.0673C1381.35 109.845 1401.98 131.499 1428.79 131.499C1445.29 131.499 1456.63 124.281 1465.91 113.97Z" fill="#00AB61" fill-opacity="0.78"/>
<path id="Fill 4" fill-rule="evenodd" clip-rule="evenodd" d="M75.7908 60.6512L56.8918 18.4656C53.2641 9.87645 44.8633 4.34082 35.8909 4.34082C25.0125 4.34082 17.3745 11.7846 15.2749 24.0013L0.766458 105.51C0.575148 107.229 0.38623 108.946 0.38623 110.666C0.38623 124.025 9.16733 133.571 21.5737 133.571C32.4569 133.571 40.4727 126.125 42.5723 113.908L46.0111 93.6761L54.4096 116.39C58.8025 128.224 65.4816 133.571 75.7908 133.571C85.715 133.571 93.1641 127.653 97.3633 116.199L105.571 93.6761L110.344 117.535C112.061 127.081 120.462 133.571 131.151 133.571C142.603 133.571 151.767 124.599 151.767 113.145C151.767 111.237 151.576 108.755 151.004 106.084L136.498 24.0013C135.35 17.129 133.631 13.5015 130.005 10.0677C126.378 6.63159 120.653 4.34082 115.497 4.34082C107.67 4.34082 100.226 8.92236 96.9783 15.6034L75.7908 60.6512Z" fill="#00AB61"/>
<path id="Fill 8" fill-rule="evenodd" clip-rule="evenodd" d="M202.05 93.293V83.7497H217.13C223.811 83.7497 226.865 82.9845 230.11 80.5025C233.547 77.6402 235.649 73.25 235.649 68.4771C235.649 59.5053 228.967 53.3982 218.656 53.3982H202.05V44.6177H223.049C230.875 44.6177 235.266 43.281 239.083 40.0362C243.473 36.4087 245.955 30.6818 245.955 24.5747C245.955 15.7918 240.23 8.53929 231.447 6.24852C228.585 5.48573 227.439 5.29443 215.413 5.29443H190.213C177.804 5.29443 176.85 5.48573 172.079 7.39391C167.688 9.30209 163.678 13.1208 161.959 17.8937C160.244 21.9013 160.053 23.238 160.053 33.9267V103.028C160.053 111.81 160.244 112.956 160.816 115.627C162.15 123.071 166.349 128.224 172.842 130.897C176.469 132.234 179.141 132.616 188.876 132.616H221.523C231.067 132.616 234.692 131.66 238.891 128.224C243.093 124.599 245.764 118.872 245.764 112.956C245.764 107.229 243.282 101.882 238.891 98.0658C234.501 94.4384 230.493 93.293 221.332 93.293H202.05Z" fill="#00AB61"/>
<path id="Fill 12" fill-rule="evenodd" clip-rule="evenodd" d="M301.476 44.2351C303.387 44.4264 304.913 44.4264 305.867 44.4264C312.168 44.2351 315.602 46.7172 315.602 51.2987C315.602 55.8803 312.359 58.171 306.058 57.9797H303.196H301.476V44.2351ZM343.282 83.5584C353.02 72.6785 356.836 63.3241 356.836 51.1074C356.836 30.4905 343.093 12.7382 323.431 7.20261C317.893 5.86832 313.311 5.29443 303.004 5.29443H285.442C275.322 5.29443 271.125 6.63111 266.352 10.8301C261.387 15.2203 259.479 20.3733 259.479 29.5364V107.992C259.479 116.009 261.005 121.545 264.443 125.935C268.26 130.708 274.559 133.57 280.86 133.57C292.504 133.57 301.476 124.407 301.476 112.382V95.0099L318.849 123.836C322.666 130.134 328.776 133.57 336.22 133.57C348.058 133.57 357.221 124.599 357.221 112.956C357.221 108.563 355.882 103.601 353.211 99.4001L343.282 83.5584Z" fill="#00AB61"/>
<path id="Fill 16" fill-rule="evenodd" clip-rule="evenodd" d="M493.502 95.5839C493.502 84.7039 483.576 74.9669 472.504 74.9669C467.157 74.9669 461.432 77.449 457.993 81.0765L453.602 85.658C448.64 91.0023 441.768 94.0559 434.895 94.0559C421.149 94.0559 410.077 82.9846 410.077 69.24C410.077 55.3065 421.149 44.4265 435.086 44.4265C441.959 44.4265 448.64 47.0999 453.222 52.0616L459.33 58.7426C462.195 61.7962 467.542 63.8981 472.504 63.8981C484.147 63.8981 493.502 54.3524 493.502 42.8985C493.502 34.5007 488.349 25.9091 478.037 17.7025C465.822 7.5853 450.931 2.24097 435.466 2.24097C398.242 2.24097 367.891 32.2099 367.891 69.24C367.891 106.084 398.051 135.861 435.277 135.861C451.505 135.861 467.348 129.754 479.757 119.063C488.729 111.237 493.502 103.219 493.502 95.5839" fill="#00AB61"/>
<path id="Fill 20" fill-rule="evenodd" clip-rule="evenodd" d="M560.86 85.6574L567.353 70.3872L573.843 85.6574H560.86ZM548.069 116.009H587.015C592.931 128.988 598.66 133.57 608.396 133.57C620.039 133.57 629.583 124.216 629.583 112.764C629.583 109.519 628.82 105.892 627.103 102.647L587.015 17.1304C583.196 9.11268 575.942 4.33984 567.353 4.33984C558.952 4.33984 551.696 9.11268 548.069 16.9391L508.174 101.501C506.454 105.129 505.5 108.945 505.5 112.573C505.5 124.409 514.664 133.57 526.307 133.57C536.425 133.57 542.724 128.417 548.069 116.009V116.009Z" fill="#00AB61"/>
<path id="Fill 24" fill-rule="evenodd" clip-rule="evenodd" d="M681.65 44.4264H685.086C692.913 44.4264 697.303 45.1892 701.311 47.0998C709.519 51.1074 714.866 59.6966 714.866 69.051C714.866 76.8774 710.858 84.7038 704.556 89.2854C699.594 92.7215 696.156 93.293 681.65 93.4843V44.4264ZM663.705 5.29443C651.487 5.29443 643.658 10.0673 640.604 19.228C639.652 22.0926 639.652 23.238 639.652 33.9267V103.982C639.652 112.765 639.652 114.864 640.415 117.726C641.75 122.688 644.423 126.127 649.196 129.18C653.013 131.853 657.023 132.616 666.95 132.616H684.703C693.484 132.616 701.122 132.042 706.276 131.088C717.348 128.798 728.037 123.262 736.247 115.627C749.227 103.601 756.671 86.4207 756.671 68.8597C756.671 50.7249 749.038 33.3552 735.673 21.5187C723.264 10.4475 708.567 5.29443 689.474 5.29443H663.705Z" fill="#00AB61"/>
<path id="Fill 28" fill-rule="evenodd" clip-rule="evenodd" d="M810.442 68.8593C810.442 55.306 821.706 44.426 835.451 44.426C849.194 44.426 860.458 55.4973 860.458 69.0506C860.458 82.7952 849.194 94.2467 835.451 94.2467C821.706 94.2467 810.442 82.7952 810.442 68.8593M768.254 68.2878C768.254 105.892 798.036 135.861 835.451 135.861C872.293 135.861 902.457 105.701 902.457 68.8593C902.457 32.0181 872.484 2.24048 835.26 2.24048C798.036 2.24048 768.254 31.6379 768.254 68.2878" fill="#00AB61"/>
<path id="Fill 32" fill-rule="evenodd" clip-rule="evenodd" d="M985.351 53.7801L951.944 12.7375C947.17 6.82167 942.4 4.3396 936.29 4.3396C923.12 4.3396 914.337 13.3114 914.337 26.8647V107.419C914.337 116.771 915.291 120.59 918.727 125.363C922.735 130.516 929.037 133.57 935.527 133.57C941.828 133.57 947.744 130.707 951.752 125.935C955.38 121.353 956.525 117.537 956.525 109.136V82.4123L989.741 124.98C994.134 130.707 999.668 133.57 1006.35 133.57C1012.84 133.57 1018.95 130.707 1022.77 125.743C1026.39 120.973 1027.35 116.771 1027.35 106.654V28.7729C1027.35 20.9489 1026.01 16.5562 1022.39 11.9771C1018.38 7.20187 1012.65 4.3396 1006.35 4.3396C999.477 4.3396 992.795 7.96705 989.17 13.5027C986.114 17.8929 985.351 21.7093 985.351 30.1096V53.7801Z" fill="#00AB61"/>
<path id="Fill 36" fill-rule="evenodd" clip-rule="evenodd" d="M1094.88 85.6574L1101.37 70.3872L1107.86 85.6574H1094.88ZM1082.09 116.009H1121.03C1126.95 128.988 1132.68 133.57 1142.41 133.57C1154.06 133.57 1163.6 124.216 1163.6 112.764C1163.6 109.519 1162.84 105.892 1161.12 102.647L1121.03 17.1304C1117.22 9.11268 1109.96 4.33984 1101.37 4.33984C1092.97 4.33984 1085.72 9.11268 1082.09 16.9391L1042.19 101.501C1040.47 105.129 1039.52 108.945 1039.52 112.573C1039.52 124.409 1048.68 133.57 1060.33 133.57C1070.44 133.57 1076.74 128.417 1082.09 116.009V116.009Z" fill="#00AB61"/>
</g>
</svg>
