<?xml version="1.0" encoding="UTF-8"?><svg id="Layer_1" xmlns="http://www.w3.org/2000/svg" viewBox="0 0 1920 1080"><defs><style>.cls-1{fill:#0052ff;stroke-width:0px;}</style></defs><g id="LOGO"><path class="cls-1" d="m708.62,504.01c-12.45-14.55-29.3-21.84-50.57-21.84s-38.69,8.48-51.92,25.46c-13.23,16.98-19.82,39.4-19.82,67.32v2.35c0,27.79,6.64,50.3,19.9,67.56,13.29,17.25,30.43,25.87,51.49,25.87,22.2,0,39.5-7.61,51.92-22.84l1.51,19.5h28.57v-258.11h-31.08s0,94.75,0,94.75Zm0,113.76c-9.07,17.71-23.46,26.54-43.18,26.54-15.01,0-26.79-5.83-35.29-17.47-8.51-11.64-12.77-27.79-12.77-48.39,0-23.09,4.27-40.5,12.77-52.25,8.51-11.77,20.39-17.66,35.62-17.66,19.25,0,33.56,8.56,42.85,25.71,0,0,0,83.52,0,83.52Z"/><path class="cls-1" d="m834.24,482.16c-14.45,0-27.87,4-40.26,12.02-12.39,8.02-22.01,19.09-28.92,33.27-6.89,14.18-10.34,30.27-10.34,48.31v5.72c0,27.11,7.72,48.77,23.19,64.94,15.47,16.2,35.51,24.27,60.16,24.27,30.49,0,53.33-11.69,68.56-35.13l-18.98-14.8c-5.72,7.4-12.37,13.34-19.98,17.82s-16.93,6.72-27.89,6.72c-15.47,0-28.22-5.51-38.23-16.55-10.02-11.04-15.26-25.52-15.72-43.45h123.18v-12.93c0-29.03-6.56-51.3-19.66-66.88-13.1-15.55-31.48-23.33-55.11-23.33Zm43.69,77.63h-91.08c2.03-16.47,7.29-29.27,15.8-38.4,8.51-9.13,19.04-13.69,31.59-13.69s23.3,4.35,30.92,13.01c7.61,8.69,11.88,20.93,12.77,36.72v2.35h0Z"/><polygon class="cls-1" points="985.69 625.16 939.49 485.51 907.71 485.51 973.6 667.34 997.3 667.34 1062.49 485.51 1030.73 485.51 985.69 625.16"/><rect class="cls-1" x="1077.88" y="485.51" width="31.08" height="181.83"/><path class="cls-1" d="m1093.67,419.3c-6.05,0-10.61,1.73-13.69,5.21-3.08,3.48-4.62,7.72-4.62,12.77s1.54,9.23,4.62,12.61c3.08,3.35,7.64,5.05,13.69,5.05s10.64-1.67,13.77-5.05c3.13-3.35,4.7-7.56,4.7-12.61s-1.57-9.29-4.7-12.77c-3.13-3.46-7.7-5.21-13.77-5.21Z"/><path class="cls-1" d="m1219.48,482.16c-22.41,0-40.56,8.75-54.44,26.22l-1-22.84h-29.41v181.83h31.08v-129.56c4.27-8.75,10.21-15.8,17.82-21.17s16.47-8.07,26.54-8.07c12.45,0,21.6,3.13,27.46,9.42,5.89,6.26,8.88,15.96,8.99,29.08v120.32h31.08v-120.16c-.32-43.39-19.68-65.07-58.14-65.07Z"/><path class="cls-1" d="m1347.14,638.85c-3.02-3.65-4.54-9.13-4.54-16.39v-112.9h33.94v-24.03h-33.94v-44.04h-31.08v44.04h-33.1v24.03h33.1v112.76c0,15.47,3.54,27.38,10.58,35.8,7.05,8.4,17.52,12.61,31.43,12.61,7.72,0,15.69-1.11,23.87-3.35v-25.06c-6.26,1.35-11.21,2.03-14.8,2.03-7.29-.03-12.45-1.86-15.47-5.51Z"/><path class="cls-1" d="m1534.1,624.84v-83.68c-.46-18.36-6.62-32.81-18.47-43.28-11.88-10.48-28.3-15.72-49.25-15.72-13.23,0-25.35,2.46-36.37,7.4-11.04,4.94-19.77,11.61-26.22,20.09-6.45,8.45-9.67,17.23-9.67,26.3h31.27c0-7.97,3.75-14.74,11.26-20.33,7.51-5.59,16.8-8.4,27.89-8.4,12.66,0,22.25,3.21,28.73,9.67,6.51,6.45,9.75,15.09,9.75,25.98v14.28h-30.24c-26.11,0-46.36,5.24-60.75,15.72-14.39,10.48-21.6,25.19-21.6,44.12,0,15.58,5.75,28.43,17.23,38.56,11.48,10.15,26.19,15.2,44.12,15.2,20.06,0,37.32-7.51,51.76-22.52,1.11,9.18,2.57,15.58,4.37,19.14h32.59v-2.7c-4.27-9.86-6.4-23.14-6.4-39.83Zm-31.08-8.42c-3.92,8.07-10.26,14.61-18.98,19.66-8.75,5.05-17.98,7.56-27.73,7.56s-18.55-2.75-25.03-8.24c-6.51-5.48-9.75-13.1-9.75-22.84,0-22.3,19.04-33.46,57.14-33.46h24.36v37.32h0Z"/><path class="cls-1" d="m500.47,422.68h-28.24l-68.42,180.54h166.28l-69.61-180.54Zm-14.12,39.83l42.07,114.43h-83.17l41.1-114.43Z"/><polygon class="cls-1" points="545.32 622.9 561.65 667.37 594.76 667.37 577.64 622.9 545.32 622.9"/><polygon class="cls-1" points="379.5 667.37 412.76 667.37 428.75 622.9 396.35 622.9 379.5 667.37"/></g></svg>