<svg width="518" height="116" viewBox="0 0 518 116" fill="none" xmlns="http://www.w3.org/2000/svg">
<path d="M59.9269 64.1367C62.3921 65.9448 64.3922 68.3132 65.7622 71.0463L65.7327 71.061C67.1488 74.0958 67.7158 77.4576 67.3737 80.7889C67.219 84.6697 65.8926 88.4126 63.5693 91.5249C61.3172 94.4119 58.4153 96.7263 55.0997 98.28C51.4996 99.9318 47.6682 101.024 43.7382 101.518C39.5694 102.062 35.3565 102.188 31.1626 101.893C24.7201 101.598 18.3781 100.184 12.4206 97.7134H12.3838C7.81853 95.6335 3.79085 92.5347 0.610241 88.6551C-0.377515 87.4792 -0.138283 85.7083 1.12608 84.8366L9.39567 79.1352C10.6447 78.2741 12.3407 78.4852 13.3404 79.6263C15.3655 81.8311 17.6857 83.7453 20.2353 85.3144C23.8338 87.3541 27.8745 88.4881 32.0088 88.6183H32.0604C34.1513 88.7791 36.2526 88.7446 38.3371 88.5153C40.346 88.3257 42.3139 87.8294 44.1724 87.0436C45.7828 86.4081 47.2273 85.4141 48.3962 84.137C49.4175 82.9893 50.008 81.5221 50.0665 79.9869V79.8985C50.2336 78.4636 49.8783 77.0164 49.0658 75.822C48.1233 74.574 46.9397 73.528 45.5852 72.7461C43.9143 71.7375 42.1215 70.9462 40.2503 70.3914C39.9365 70.2991 39.6213 70.2054 39.305 70.1114C38.3603 69.8306 37.4052 69.5467 36.446 69.2876C35.563 69.0448 34.6653 68.8093 33.7602 68.5886C29.8356 67.6074 26.0779 66.5208 22.487 65.3288C19.148 64.2774 15.954 62.8114 12.9798 60.9652C10.3533 59.3296 8.15376 57.0923 6.56325 54.4382C4.96743 51.4632 4.31791 48.0718 4.70155 44.7177V44.6441C4.91507 41.1927 6.16677 37.8865 8.29249 35.159C10.4206 32.4248 13.1534 30.2209 16.2764 28.7204C19.6383 27.1126 23.2068 25.9784 26.88 25.3502C30.7887 24.6798 34.7638 24.4821 38.7198 24.7615C44.5576 25.0973 50.2762 26.5538 55.5633 29.0515C59.6203 30.9625 63.108 33.8998 65.6812 37.5726C66.3164 38.6348 65.9641 40.0111 64.8968 40.6376L55.0988 46.3882C54.1182 46.9637 52.8573 46.6459 52.2667 45.6743C50.5048 43.332 48.2258 41.4282 45.6073 40.1113C42.9173 38.7488 39.9604 37.9951 36.9464 37.9037H36.9022C35.0189 37.7736 33.1271 37.8426 31.2583 38.1098C29.4979 38.3248 27.7778 38.7932 26.1515 39.5005C24.7438 40.0951 23.4775 40.9803 22.4355 42.0981C21.5312 43.1068 21.0103 44.4013 20.9638 45.7552V45.7994C20.9119 46.3633 20.9874 46.9316 21.1845 47.4624C21.3824 48.0131 21.696 48.5149 22.1043 48.9341C22.6305 49.4695 23.199 49.9616 23.8041 50.4058C24.593 50.9813 25.4387 51.4744 26.3281 51.8775H26.3649C28.4675 52.915 30.6472 53.7884 32.8845 54.4897C35.3815 55.2697 37.979 55.9516 40.6771 56.5354C44.2442 57.3778 47.76 58.4244 51.2071 59.6701C54.3152 60.7276 57.2526 62.2323 59.9269 64.1367Z" fill="#00C2A3"/>
<path fill-rule="evenodd" clip-rule="evenodd" d="M145.336 38.3306C151.446 45.317 154.841 54.267 154.902 63.5481V67.7057C154.902 69.7377 153.254 71.3849 151.222 71.3849H94.3561C94.6708 72.3269 95.0494 73.2464 95.4893 74.137C97.9879 79.2415 102.259 83.2618 107.506 85.4469C112.739 87.6252 118.588 87.8163 123.952 85.9841C127.249 84.8596 130.225 83.0215 132.685 80.6312C133.955 79.398 135.864 78.9634 137.431 79.7853L144.583 83.5363C146.525 84.5553 147.16 87.0494 145.744 88.7254C141.275 94.0166 135.429 98.0375 128.794 100.304C119.968 103.314 110.346 102.997 101.737 99.4133C93.1157 95.8168 86.0945 89.2115 81.9791 80.8258C77.8576 72.42 76.9166 62.8068 79.3301 53.7614C81.7394 44.7379 87.3396 36.8945 95.0919 31.6859C102.833 26.4806 112.209 24.2825 121.457 25.5048C130.712 26.7319 139.202 31.2921 145.336 38.3306ZM119.578 40.1217C113.867 39.3692 108.078 40.7274 103.298 43.9413C98.9731 46.8494 95.7205 51.0943 94.0376 56.0265L93.8715 56.5132H139.087L138.922 56.0267C137.923 53.0927 136.361 50.3815 134.325 48.0447C130.537 43.6978 125.294 40.881 119.578 40.1217Z" fill="#00C2A3"/>
<path d="M283.034 70.0602C280.886 80.0769 276.12 89.3448 269.222 96.9186C273.713 98.5172 278.444 99.336 283.21 99.3395C285.039 99.3395 286.522 100.822 286.522 102.651V112.695C286.522 114.524 285.039 116.006 283.21 116.006C275.559 116.006 267.981 114.506 260.907 111.591C253.839 108.681 247.411 104.41 241.988 99.0231C236.582 93.6421 232.288 87.2484 229.354 80.2075C226.433 73.1706 224.933 65.6258 224.939 58.007C224.939 56.1782 226.421 54.6957 228.25 54.6957H238.338C240.167 54.6957 241.65 56.1782 241.65 58.007C241.65 63.4353 242.725 68.8099 244.814 73.8203C246.906 78.84 249.966 83.3983 253.821 87.2348C253.963 87.3731 254.112 87.5069 254.262 87.6411C254.383 87.7498 254.504 87.8588 254.623 87.9707C260.714 82.2315 264.918 74.7767 266.676 66.5943C268.716 57.0183 267.276 47.0286 262.614 38.4187C257.939 29.7885 250.358 23.0935 241.216 19.5222C232.046 15.9478 221.91 15.7237 212.591 18.8893C203.291 22.0482 195.41 28.3987 190.346 36.8146C185.311 45.2085 183.427 55.1209 185.034 64.7768C186.653 74.4425 191.659 83.2168 199.155 89.5307C206.679 95.864 216.2 99.3354 226.035 99.3322C227.457 99.3322 228.611 100.485 228.611 101.908V113.424C228.611 114.846 227.457 115.999 226.035 115.999C212.244 116 198.895 111.129 188.345 102.246C177.826 93.3854 170.801 81.0715 168.529 67.5068C166.257 53.9479 168.895 40.0234 175.968 28.2346C183.066 16.431 194.118 7.52501 207.161 3.09805C220.23 -1.33056 234.443 -1.00219 247.294 4.02522C260.127 9.02392 270.772 18.41 277.338 30.5157C283.881 42.5998 285.901 56.6209 283.034 70.0602Z" fill="#00C2A3"/>
<path d="M354.864 73.3932C355.926 70.8268 356.471 68.0762 356.468 65.2989V28.8008C356.468 26.7689 358.116 25.1216 360.147 25.1216H369.493C371.525 25.1216 373.172 26.7689 373.172 28.8008V65.3062C373.172 70.2706 372.194 75.1864 370.295 79.773C368.391 84.3588 365.606 88.5265 362.097 92.0396C358.586 95.5485 354.418 98.3315 349.831 100.23C345.244 102.129 340.329 103.107 335.364 103.107C330.4 103.107 325.484 102.129 320.897 100.23C316.296 98.3353 312.114 95.5493 308.594 92.0322C305.083 88.5211 302.297 84.3529 300.397 79.7656C298.497 75.179 297.52 70.2632 297.52 65.2989V28.7935C297.52 26.7615 299.167 25.1143 301.199 25.1143H310.544C312.576 25.1143 314.223 26.7615 314.223 28.7935V65.2989C314.221 68.0762 314.766 70.8268 315.827 73.3932C316.888 75.9556 318.443 78.2836 320.404 80.2439C322.363 82.2022 324.688 83.755 327.248 84.8135C329.814 85.8775 332.564 86.4251 335.342 86.4251C338.12 86.4253 340.87 85.8776 343.436 84.8135C345.998 83.755 348.326 82.2022 350.287 80.2439C352.246 78.2816 353.801 75.9541 354.864 73.3932Z" fill="#00C2A3"/>
<path d="M397.593 35.9756C401.263 32.3258 405.613 29.4309 410.397 27.4545V27.425C415.189 25.4521 420.321 24.4372 425.504 24.4375C428.145 24.4375 430.287 26.5789 430.287 29.2205V36.2552C430.287 38.8968 428.145 41.0382 425.504 41.0382C422.5 41.0379 419.525 41.6254 416.747 42.7675C413.974 43.9119 411.453 45.5923 409.33 47.7124C407.207 49.8139 405.522 52.3148 404.37 55.0708C403.304 57.6404 402.717 60.384 402.641 63.1651V99.4351C402.641 101.467 400.994 103.114 398.962 103.114H389.675C387.643 103.114 385.996 101.467 385.996 99.4351V60.9576H386.136C386.44 56.7494 387.418 52.6175 389.035 48.7205C391.026 43.9531 393.934 39.623 397.593 35.9756Z" fill="#00C2A3"/>
<path fill-rule="evenodd" clip-rule="evenodd" d="M439.418 63.7906C439.418 42.2598 457.027 24.8275 478.72 24.8275V24.7981C500.398 24.7981 518.058 42.2303 517.999 63.8054V99.0819C517.999 101.114 516.352 102.761 514.32 102.761H505.703C503.671 102.761 502.024 101.114 502.024 99.0819V95.1672C495.259 100.108 487.096 102.765 478.72 102.754C457.027 102.754 439.418 85.3215 439.418 63.7906ZM469.886 85.0286C472.689 86.1741 475.691 86.7563 478.72 86.7417V86.7123C484.832 86.7358 490.704 84.3316 495.045 80.028C499.385 75.7245 501.84 69.8737 501.869 63.7612C501.832 57.6539 499.374 51.8106 495.034 47.5134C490.694 43.2162 484.827 40.8161 478.72 40.8396C475.691 40.825 472.689 41.4072 469.886 42.5527C467.082 43.6983 464.532 45.3848 462.38 47.516C460.229 49.6472 458.518 52.1814 457.345 54.9738C456.173 57.7662 455.562 60.7622 455.548 63.7906C455.562 66.8191 456.173 69.8151 457.345 72.6075C458.518 75.3999 460.229 77.9341 462.38 80.0653C464.532 82.1965 467.082 83.8831 469.886 85.0286Z" fill="#00C2A3"/>
</svg>
